<mxfile host="app.diagrams.net" modified="2023-11-23T08:32:44.952Z" agent="Mozilla/5.0 (Windows NT 10.0; Win64; x64) AppleWebKit/537.36 (KHTML, like Gecko) Chrome/119.0.0.0 Safari/537.36" etag="JMWrdYSM5LAnfGECNXwL" version="21.6.6" type="github">
  <diagram name="Page-1" id="LYBQ8YEYvanbti2I9d4i">
    <mxGraphModel dx="890" dy="390" grid="1" gridSize="10" guides="1" tooltips="1" connect="1" arrows="1" fold="1" page="1" pageScale="1" pageWidth="850" pageHeight="1100" math="0" shadow="0">
      <root>
        <mxCell id="0" />
        <mxCell id="1" parent="0" />
        <mxCell id="C3yQvSNvVFX-LU6M2bJ4-1" value="Seminar" style="whiteSpace=wrap;html=1;aspect=fixed;" vertex="1" parent="1">
          <mxGeometry x="170" y="110" width="80" height="80" as="geometry" />
        </mxCell>
        <mxCell id="C3yQvSNvVFX-LU6M2bJ4-2" value="Backoffice" style="rounded=0;whiteSpace=wrap;html=1;" vertex="1" parent="1">
          <mxGeometry y="100" width="100" height="30" as="geometry" />
        </mxCell>
        <mxCell id="C3yQvSNvVFX-LU6M2bJ4-3" value="Product Cockpit&lt;br&gt;" style="whiteSpace=wrap;html=1;" vertex="1" parent="1">
          <mxGeometry y="160" width="100" height="30" as="geometry" />
        </mxCell>
        <mxCell id="C3yQvSNvVFX-LU6M2bJ4-4" value="Seminar Event&lt;br&gt;" style="ellipse;whiteSpace=wrap;html=1;" vertex="1" parent="1">
          <mxGeometry x="300" y="110" width="150" height="80" as="geometry" />
        </mxCell>
        <mxCell id="C3yQvSNvVFX-LU6M2bJ4-5" value="" style="endArrow=classic;html=1;rounded=0;exitX=1;exitY=0.5;exitDx=0;exitDy=0;entryX=0;entryY=0.25;entryDx=0;entryDy=0;" edge="1" parent="1" source="C3yQvSNvVFX-LU6M2bJ4-2" target="C3yQvSNvVFX-LU6M2bJ4-1">
          <mxGeometry width="50" height="50" relative="1" as="geometry">
            <mxPoint x="400" y="320" as="sourcePoint" />
            <mxPoint x="450" y="270" as="targetPoint" />
          </mxGeometry>
        </mxCell>
        <mxCell id="C3yQvSNvVFX-LU6M2bJ4-7" value="&lt;font style=&quot;font-size: 6px;&quot;&gt;Create/update&lt;/font&gt;" style="text;html=1;align=center;verticalAlign=middle;resizable=0;points=[];autosize=1;strokeColor=none;fillColor=none;" vertex="1" parent="1">
          <mxGeometry x="100" y="110" width="60" height="30" as="geometry" />
        </mxCell>
        <mxCell id="C3yQvSNvVFX-LU6M2bJ4-9" value="" style="endArrow=classic;html=1;rounded=0;exitX=1;exitY=0.5;exitDx=0;exitDy=0;entryX=0;entryY=0.5;entryDx=0;entryDy=0;" edge="1" parent="1" source="C3yQvSNvVFX-LU6M2bJ4-3" target="C3yQvSNvVFX-LU6M2bJ4-1">
          <mxGeometry width="50" height="50" relative="1" as="geometry">
            <mxPoint x="140" y="210" as="sourcePoint" />
            <mxPoint x="237" y="174" as="targetPoint" />
          </mxGeometry>
        </mxCell>
        <mxCell id="C3yQvSNvVFX-LU6M2bJ4-8" value="&lt;font style=&quot;font-size: 8px;&quot;&gt;Create/update&lt;/font&gt;" style="text;html=1;align=center;verticalAlign=middle;resizable=0;points=[];autosize=1;strokeColor=none;fillColor=none;" vertex="1" parent="1">
          <mxGeometry x="90" y="145" width="70" height="30" as="geometry" />
        </mxCell>
        <mxCell id="C3yQvSNvVFX-LU6M2bJ4-10" value="" style="shape=flexArrow;endArrow=classic;startArrow=classic;html=1;rounded=0;exitX=1;exitY=0.5;exitDx=0;exitDy=0;entryX=0;entryY=0.5;entryDx=0;entryDy=0;" edge="1" parent="1" source="C3yQvSNvVFX-LU6M2bJ4-1" target="C3yQvSNvVFX-LU6M2bJ4-4">
          <mxGeometry width="100" height="100" relative="1" as="geometry">
            <mxPoint x="370" y="320" as="sourcePoint" />
            <mxPoint x="470" y="220" as="targetPoint" />
          </mxGeometry>
        </mxCell>
        <mxCell id="C3yQvSNvVFX-LU6M2bJ4-11" value="Customer&lt;br&gt;" style="shape=umlActor;verticalLabelPosition=bottom;verticalAlign=top;html=1;outlineConnect=0;" vertex="1" parent="1">
          <mxGeometry x="10" y="260" width="30" height="60" as="geometry" />
        </mxCell>
        <mxCell id="C3yQvSNvVFX-LU6M2bJ4-13" value="ORDER" style="rounded=0;whiteSpace=wrap;html=1;" vertex="1" parent="1">
          <mxGeometry x="200" y="270" width="120" height="60" as="geometry" />
        </mxCell>
        <mxCell id="C3yQvSNvVFX-LU6M2bJ4-14" value="" style="endArrow=classic;html=1;rounded=0;" edge="1" parent="1">
          <mxGeometry width="50" height="50" relative="1" as="geometry">
            <mxPoint x="40" y="299.65999999999997" as="sourcePoint" />
            <mxPoint x="200" y="300" as="targetPoint" />
          </mxGeometry>
        </mxCell>
        <mxCell id="C3yQvSNvVFX-LU6M2bJ4-15" value="Place order" style="text;html=1;align=center;verticalAlign=middle;resizable=0;points=[];autosize=1;strokeColor=none;fillColor=none;" vertex="1" parent="1">
          <mxGeometry x="70" y="270" width="80" height="30" as="geometry" />
        </mxCell>
        <mxCell id="C3yQvSNvVFX-LU6M2bJ4-16" value="" style="shape=flexArrow;endArrow=classic;startArrow=classic;html=1;rounded=0;exitX=0;exitY=0;exitDx=0;exitDy=0;entryX=0.5;entryY=1;entryDx=0;entryDy=0;" edge="1" parent="1" source="C3yQvSNvVFX-LU6M2bJ4-13" target="C3yQvSNvVFX-LU6M2bJ4-1">
          <mxGeometry width="100" height="100" relative="1" as="geometry">
            <mxPoint x="370" y="420" as="sourcePoint" />
            <mxPoint x="470" y="320" as="targetPoint" />
          </mxGeometry>
        </mxCell>
        <mxCell id="C3yQvSNvVFX-LU6M2bJ4-17" value="" style="shape=flexArrow;endArrow=classic;startArrow=classic;html=1;rounded=0;exitX=0.5;exitY=0;exitDx=0;exitDy=0;entryX=0;entryY=1;entryDx=0;entryDy=0;" edge="1" parent="1" source="C3yQvSNvVFX-LU6M2bJ4-13" target="C3yQvSNvVFX-LU6M2bJ4-4">
          <mxGeometry width="100" height="100" relative="1" as="geometry">
            <mxPoint x="560" y="320" as="sourcePoint" />
            <mxPoint x="480" y="200" as="targetPoint" />
          </mxGeometry>
        </mxCell>
        <mxCell id="C3yQvSNvVFX-LU6M2bJ4-19" value="" style="endArrow=classic;html=1;rounded=0;" edge="1" parent="1" target="C3yQvSNvVFX-LU6M2bJ4-20">
          <mxGeometry width="50" height="50" relative="1" as="geometry">
            <mxPoint x="450" y="159.66" as="sourcePoint" />
            <mxPoint x="630" y="159.66" as="targetPoint" />
          </mxGeometry>
        </mxCell>
        <mxCell id="C3yQvSNvVFX-LU6M2bJ4-20" value="Event date" style="text;html=1;strokeColor=none;fillColor=none;align=center;verticalAlign=middle;whiteSpace=wrap;rounded=0;" vertex="1" parent="1">
          <mxGeometry x="580" y="145" width="90" height="30" as="geometry" />
        </mxCell>
        <mxCell id="C3yQvSNvVFX-LU6M2bJ4-23" value="ERP&amp;nbsp;" style="whiteSpace=wrap;html=1;aspect=fixed;" vertex="1" parent="1">
          <mxGeometry x="220" y="410" width="80" height="80" as="geometry" />
        </mxCell>
        <mxCell id="C3yQvSNvVFX-LU6M2bJ4-24" value="" style="endArrow=classic;startArrow=classic;html=1;rounded=0;exitX=0.5;exitY=0;exitDx=0;exitDy=0;" edge="1" parent="1" source="C3yQvSNvVFX-LU6M2bJ4-23">
          <mxGeometry width="50" height="50" relative="1" as="geometry">
            <mxPoint x="210" y="380" as="sourcePoint" />
            <mxPoint x="260" y="330" as="targetPoint" />
          </mxGeometry>
        </mxCell>
        <mxCell id="C3yQvSNvVFX-LU6M2bJ4-25" value="Synchronized" style="text;html=1;align=center;verticalAlign=middle;resizable=0;points=[];autosize=1;strokeColor=none;fillColor=none;" vertex="1" parent="1">
          <mxGeometry x="200" y="358" width="100" height="30" as="geometry" />
        </mxCell>
        <mxCell id="C3yQvSNvVFX-LU6M2bJ4-26" value="Acadmy staff/teacher" style="shape=umlActor;verticalLabelPosition=bottom;verticalAlign=top;html=1;outlineConnect=0;" vertex="1" parent="1">
          <mxGeometry x="620" y="280" width="30" height="60" as="geometry" />
        </mxCell>
        <mxCell id="C3yQvSNvVFX-LU6M2bJ4-27" value="" style="endArrow=classic;html=1;rounded=0;" edge="1" parent="1">
          <mxGeometry width="50" height="50" relative="1" as="geometry">
            <mxPoint x="660" y="160" as="sourcePoint" />
            <mxPoint x="800" y="160" as="targetPoint" />
          </mxGeometry>
        </mxCell>
        <mxCell id="C3yQvSNvVFX-LU6M2bJ4-28" value="" style="endArrow=classic;html=1;rounded=0;" edge="1" parent="1" source="C3yQvSNvVFX-LU6M2bJ4-26">
          <mxGeometry relative="1" as="geometry">
            <mxPoint x="680" y="300" as="sourcePoint" />
            <mxPoint x="500" y="160" as="targetPoint" />
          </mxGeometry>
        </mxCell>
        <mxCell id="C3yQvSNvVFX-LU6M2bJ4-29" value="Cancel" style="edgeLabel;resizable=0;html=1;align=center;verticalAlign=middle;" connectable="0" vertex="1" parent="C3yQvSNvVFX-LU6M2bJ4-28">
          <mxGeometry relative="1" as="geometry" />
        </mxCell>
        <mxCell id="C3yQvSNvVFX-LU6M2bJ4-30" value="...." style="text;html=1;align=center;verticalAlign=middle;resizable=0;points=[];autosize=1;strokeColor=none;fillColor=none;" vertex="1" parent="1">
          <mxGeometry x="790" y="140" width="40" height="30" as="geometry" />
        </mxCell>
        <mxCell id="C3yQvSNvVFX-LU6M2bJ4-38" value="" style="endArrow=classic;html=1;rounded=0;entryX=0.5;entryY=1;entryDx=0;entryDy=0;" edge="1" parent="1" target="C3yQvSNvVFX-LU6M2bJ4-4">
          <mxGeometry relative="1" as="geometry">
            <mxPoint x="620" y="320" as="sourcePoint" />
            <mxPoint x="360" y="200" as="targetPoint" />
          </mxGeometry>
        </mxCell>
        <mxCell id="C3yQvSNvVFX-LU6M2bJ4-39" value="Label" style="edgeLabel;resizable=0;html=1;align=center;verticalAlign=middle;" connectable="0" vertex="1" parent="C3yQvSNvVFX-LU6M2bJ4-38">
          <mxGeometry relative="1" as="geometry" />
        </mxCell>
        <mxCell id="C3yQvSNvVFX-LU6M2bJ4-40" value="Publish&lt;br&gt;" style="edgeLabel;html=1;align=center;verticalAlign=middle;resizable=0;points=[];" vertex="1" connectable="0" parent="C3yQvSNvVFX-LU6M2bJ4-38">
          <mxGeometry x="-0.0015" y="4" relative="1" as="geometry">
            <mxPoint as="offset" />
          </mxGeometry>
        </mxCell>
        <mxCell id="C3yQvSNvVFX-LU6M2bJ4-41" value="" style="endArrow=classic;html=1;rounded=0;exitX=0.5;exitY=0;exitDx=0;exitDy=0;exitPerimeter=0;entryX=1;entryY=0.5;entryDx=0;entryDy=0;" edge="1" parent="1" source="C3yQvSNvVFX-LU6M2bJ4-26" target="C3yQvSNvVFX-LU6M2bJ4-20">
          <mxGeometry relative="1" as="geometry">
            <mxPoint x="390" y="270" as="sourcePoint" />
            <mxPoint x="690" y="160" as="targetPoint" />
          </mxGeometry>
        </mxCell>
        <mxCell id="C3yQvSNvVFX-LU6M2bJ4-42" value="Check attendance" style="edgeLabel;resizable=0;html=1;align=center;verticalAlign=middle;" connectable="0" vertex="1" parent="C3yQvSNvVFX-LU6M2bJ4-41">
          <mxGeometry relative="1" as="geometry" />
        </mxCell>
        <mxCell id="C3yQvSNvVFX-LU6M2bJ4-43" value="" style="endArrow=classic;html=1;rounded=0;" edge="1" parent="1" source="C3yQvSNvVFX-LU6M2bJ4-26">
          <mxGeometry relative="1" as="geometry">
            <mxPoint x="640" y="320" as="sourcePoint" />
            <mxPoint x="760" y="160" as="targetPoint" />
          </mxGeometry>
        </mxCell>
        <mxCell id="C3yQvSNvVFX-LU6M2bJ4-44" value="F" style="edgeLabel;resizable=0;html=1;align=center;verticalAlign=middle;" connectable="0" vertex="1" parent="C3yQvSNvVFX-LU6M2bJ4-43">
          <mxGeometry relative="1" as="geometry" />
        </mxCell>
        <mxCell id="C3yQvSNvVFX-LU6M2bJ4-45" value="Mark finished" style="edgeLabel;html=1;align=center;verticalAlign=middle;resizable=0;points=[];" vertex="1" connectable="0" parent="C3yQvSNvVFX-LU6M2bJ4-43">
          <mxGeometry x="-0.0058" y="-2" relative="1" as="geometry">
            <mxPoint as="offset" />
          </mxGeometry>
        </mxCell>
        <mxCell id="C3yQvSNvVFX-LU6M2bJ4-46" value="" style="endArrow=classic;html=1;rounded=0;entryX=-0.064;entryY=0.991;entryDx=0;entryDy=0;entryPerimeter=0;" edge="1" parent="1" target="C3yQvSNvVFX-LU6M2bJ4-30">
          <mxGeometry relative="1" as="geometry">
            <mxPoint x="660" y="330" as="sourcePoint" />
            <mxPoint x="790" y="180" as="targetPoint" />
          </mxGeometry>
        </mxCell>
        <mxCell id="C3yQvSNvVFX-LU6M2bJ4-47" value="Label" style="edgeLabel;resizable=0;html=1;align=center;verticalAlign=middle;" connectable="0" vertex="1" parent="C3yQvSNvVFX-LU6M2bJ4-46">
          <mxGeometry relative="1" as="geometry" />
        </mxCell>
        <mxCell id="C3yQvSNvVFX-LU6M2bJ4-48" value="send coupon" style="edgeLabel;html=1;align=center;verticalAlign=middle;resizable=0;points=[];" vertex="1" connectable="0" parent="C3yQvSNvVFX-LU6M2bJ4-46">
          <mxGeometry x="-0.0096" y="-2" relative="1" as="geometry">
            <mxPoint y="1" as="offset" />
          </mxGeometry>
        </mxCell>
      </root>
    </mxGraphModel>
  </diagram>
</mxfile>
